<svg xmlns="http://www.w3.org/2000/svg" id="favlogo" width="34" height="34" fill="url('#favgrad')" viewBox="0 0 152 152"><defs><linearGradient id="favgrad" x1="0%" x2="100%" y1="0%" y2="0%"><stop offset="0%" stop-color="#ff00ad"/><stop offset="1000%" stop-color="#1565c0"/></linearGradient></defs><path d="M59.2 133.6c-.9 0-1.3-.5-1.3-1.4v-47c-1.8 0-3.3-1.3-4.7-3.8a16 16 0 0 1-2-8.5l2.2-.5c.7 0 1.5-.2 2.2-.4l2.3-.5a1276 1276 0 0 1 .6-36.6 241.1 241.1 0 0 1-8.4.9 6 6 0 0 1-1.3-2 18.1 18.1 0 0 1-1.2-7.5c0-1.6.3-2.7.9-3.5a352.1 352.1 0 0 0 7.4-1.4l4.4-.6a30.8 30.8 0 0 1 7.9-5.3c1.3-.6 2.2-.6 2.7 0s.8 1.9 1 3.8l7.9-.6a2962.8 2962.8 0 0 0 28.4-.7l6.9.2c.8.1 1.4.7 1.9 1.8.4 1 .6 2.4.4 4a16 16 0 0 1-1.6 5.4c-.9 2-2.2 3.8-4 5.6a336.4 336.4 0 0 0-15-2c-2.7-.1-5.2-.2-7.6 0a169.3 169.3 0 0 0-17.1.7l-.2 15.8-.3 19.9 4.1-.4 4.1-.2 10.6-.6c3.4-.2 6.4-.1 9 .2 2.6.4 4.5 1.1 5.8 2.4 1.3 1.2 1.6 3 1 5.7l-2.2 7.3c-.2-.5-.7-1-1.6-1.3a37.3 37.3 0 0 0-7-1.6c-3.5-.4-7.4-.5-11.7-.2-4.2.4-8.3.8-12.2 1.4A426.8 426.8 0 0 0 73 118l.4 5.9c.1.9 0 1.6-.3 2.1l-1.8 2.1a16.5 16.5 0 0 1-12 5.5zm54.6-25.5a26.4 26.4 0 0 0-.8-2 54.8 54.8 0 0 1-1.9-8.9c0-1 0-1.9.2-2.7a1030.3 1030.3 0 0 0 18.1-14.8c2.5-2 4.6-3.9 6.4-5.6a190.7 190.7 0 0 0-14.5-10.4L111 57c-.3-.7-.5-1.5-.5-2.3a39.2 39.2 0 0 1 0-5.1c.1-1 .3-1.8.6-2.6.2-.7.5-1.4.9-2 .3-.6.8-1 1.4-1.5 1 .7 2 1.6 3.4 2.5l3.9 3a637.8 637.8 0 0 1 23.6 19.3c.4.3.6 1 .7 2.2v3.8l-.7 4a7 7 0 0 1-1 2.6 153.6 153.6 0 0 1-16.5 16.3 225.5 225.5 0 0 1-13 10.9zM39 43.5c.5.4 1 1 1.3 1.5l.8 2c.3.8.5 1.7.6 2.6a24.7 24.7 0 0 1 0 5.1 15 15 0 0 1-.4 2.3 436.9 436.9 0 0 0-24.9 17A432 432 0 0 0 41 94.5c.3 1 .3 1.9.3 3 0 1-.2 2-.4 3a54.8 54.8 0 0 1-1.9 7.2c-.1.5-.3.6-.4.4A225.5 225.5 0 0 1 9.1 80.9a7 7 0 0 1-1-2.6 24.7 24.7 0 0 1-.7-7.8c0-1.1.2-1.9.7-2.2a131.2 131.2 0 0 1 9.3-8A203.9 203.9 0 0 1 31.7 49l3.8-3 3.6-2.5z"/></svg>
