<?xml version="1.0" standalone="no"?>
<!DOCTYPE svg PUBLIC "-//W3C//DTD SVG 20010904//EN"
 "http://www.w3.org/TR/2001/REC-SVG-20010904/DTD/svg10.dtd">
<svg version="1.0" xmlns="http://www.w3.org/2000/svg"
 width="350.000000pt" height="350.000000pt" viewBox="0 0 350.000000 350.000000"
 preserveAspectRatio="xMidYMid meet">
<metadata>
Created by potrace 1.11, written by Peter Selinger 2001-2013
</metadata>
<g transform="translate(0.000000,350.000000) scale(0.100000,-0.100000)"
fill="#000000" stroke="none">
<path d="M1500 3199 c-30 -18 -77 -49 -105 -69 -44 -33 -63 -40 -155 -55 -177
-28 -187 -32 -201 -73 -14 -43 -7 -140 16 -207 26 -77 27 -78 138 -66 53 6
100 11 104 11 4 0 5 -75 2 -167 -4 -93 -7 -299 -8 -460 l-1 -292 -37 -10 c-21
-6 -57 -13 -80 -17 -30 -4 -43 -12 -47 -27 -7 -28 9 -108 35 -167 22 -51 87
-120 114 -120 13 0 15 -77 17 -602 l3 -603 46 -3 c108 -7 275 86 325 180 13
24 12 63 -6 310 -11 156 -23 398 -27 539 l-6 255 94 13 c52 7 182 15 289 18
211 6 342 -9 406 -47 l32 -18 25 87 c37 124 40 147 27 186 -14 43 -49 68 -124
90 -71 21 -257 21 -549 2 l-187 -12 -1 25 c-1 14 0 192 1 395 2 361 5 463 15
473 9 9 239 21 415 21 164 1 363 -15 508 -40 l64 -11 31 38 c120 144 146 358
47 378 -73 14 -884 -1 -1026 -19 l-49 -7 -15 49 c-13 42 -19 48 -45 51 -19 1
-50 -9 -85 -29z"/>
<path d="M723 2452 c-269 -197 -666 -526 -691 -572 -17 -31 -9 -163 14 -240
14 -48 31 -70 153 -193 220 -225 594 -548 612 -530 16 16 50 161 55 233 4 55
2 79 -8 92 -7 9 -89 78 -183 154 -259 209 -427 356 -418 365 35 34 272 201
425 302 137 89 190 129 195 147 12 39 9 170 -5 217 -7 24 -23 54 -35 68 l-22
25 -92 -68z"/>
<path d="M2661 2494 c-41 -53 -65 -204 -45 -281 4 -15 72 -66 208 -156 198
-132 398 -276 410 -295 9 -16 -171 -174 -501 -440 l-103 -83 0 -63 c0 -65 28
-195 53 -241 l13 -26 101 80 c260 207 609 547 643 624 25 58 43 179 36 232 -6
40 -15 51 -104 128 -172 148 -504 413 -639 510 l-51 37 -21 -26z"/>
</g>
</svg>
